<svg xmlns="http://www.w3.org/2000/svg" xmlns:xlink="http://www.w3.org/1999/xlink" viewBox="0 0 576 576"><defs><style>.cls-1{fill:none;}.cls-2{isolation:isolate;}.cls-3{clip-path:url(#clip-path);}.cls-4{fill:#2672a1;}.cls-5{fill:#f0a06a;}.cls-6{fill:#b2cacc;}.cls-7{fill:#69a2b2;}.cls-8{fill:#f7c8a1;}.cls-9{fill:#e64225;}.cls-10{mix-blend-mode:overlay;}.cls-11{fill:#fdd5be;}</style><clipPath id="clip-path"><circle class="cls-1" cx="287.43" cy="284.8" r="274.8"/></clipPath></defs><g class="cls-2"><g id="mask"><g class="cls-3"><rect class="cls-4" x="-21.9" y="-5.17" width="871.99" height="581.32"/><path class="cls-5" d="M267.45,225.49c-1.67-7.85-6.55-11.05-10.21-14a1.18,1.18,0,0,0-1.93.94,104.33,104.33,0,0,1-.8,14.24c-.06.48-.12,1-.19,1.46L252.53,210a30,30,0,0,0-1.28-7.08A126.2,126.2,0,0,0,246.53,234c-.07,5.77-9.08,6.57-9,.74a142.71,142.71,0,0,1,6.13-37.93,9,9,0,0,0-3.86-.16c-1.82,3.23-1,19.55-3.1,29,0-9.39-.15-18.68-2.73-27.7-.77-2.68-2.26-7.89-4.11-10.35a5,5,0,0,0-2.32-.92c-2.11,15.22-2.82,30.62-6.4,45.62-1.35,5.64-10.25,4.1-8.9-1.57a169.78,169.78,0,0,0,3.11-17.58,41.08,41.08,0,0,0-3.59-10.49c-1.88-3.36-6.32-4.45-10.38-4.35a4.61,4.61,0,0,1,.1,1v1.56c0,.05,0,.09,0,.14-.14,10.54-1.4,22,2.58,31.8a4,4,0,0,1,.12,3,5,5,0,0,1-.27,1.09c-5.57,14.8-4.61,31.24-6,46.76-.51,5.8-9.41,4.19-8.9-1.57.73-8.22.93-16.54,1.68-24.76-3.57-4.09-10-6.75-15.35-5.19,7.36,16.61,7.35,36.83,2.16,54a4.66,4.66,0,0,1-2.95,3.12c-.3,1.75-.58,3.69-.8,5.95-.83,8.61.72,20.85,3.07,29.3,3.83,13.81,2.25,24.1-8.1,32.42-48,38.64-101.23,68.54-153.19,100.71C-11,494.2-37.31,511.25-62.38,530.37-86.94,565-150.75,637.24-144.77,656.25s40.42,24.08,57.83,33.78c21-14,114.4-59.78,130.12-79.59,26.88-33.89,62-65.29,91.86-96.61,13.74-14.43,26.32-29.9,38.9-45.35,16.68-20.51,65.56-76.77,70.2-82.41a100.53,100.53,0,0,0,12.67-19c5.64-10.56,11.79-24.13,11.5-41.53-.06-3.82-.92-32.28-1.41-36.07,1.06-9.51.71-11.52,1.59-23.23C269.31,255.15,269.73,236.25,267.45,225.49Z"/><path class="cls-6" d="M280.55,206.16c-2-9.21-7.68-13-12-16.44a1.38,1.38,0,0,0-2.26,1.09,122.68,122.68,0,0,1-.94,16.7c-.07.57-.14,1.14-.22,1.71L263.06,188c-.36-3.72-.77-7.56-2.64-10.79s-8.65-5.68-12.28-4.81c-2.13,3.78-1.17,22.91-3.64,34,0-11-.18-21.9-3.2-32.47-.9-3.15-2.65-9.26-4.82-12.14-1-1.33-12-3.05-12,.15-.11,14.61-2.14,31.12-2.68,46.67q-.65-5.5-1.28-11c-.62-5.3-2.62-13.51-5.23-18.16s-9.39-5.59-14.68-4.91c-1,30.33-4.87,62.22-2.07,92.39-.77-8.31-2.46-17-7.92-23.3-5.15-5.94-15.48-9.35-22.17-4,7.23,10.68,7.79,23.12,7.85,35.95.07,16.71-7.25,24.16-8.88,40.85-1,10.09.84,24.44,3.6,34.34,4.49,16.19,5.07,17.65-6.07,26.32C144.56,392.92,119,411,97.73,425.14c11.88,31,23.52,59.36,50,78.83,4.85-5.86,100.07-103,105.52-109.56a118.41,118.41,0,0,0,14.85-22.28c6.61-12.38,13.82-28.3,13.48-48.69-.07-4.49-1.08-37.85-1.65-42.3,1.24-11.14.83-13.5,1.86-27.23C282.74,240.93,283.23,218.77,280.55,206.16Z"/><path class="cls-7" d="M203,300.25c1-13.38-1.28-28.08-4.53-39.22-.35-1.19-1.48-1.48-1.48-1.36l.55,1.82s4.64,22.9.71,39.82a2.28,2.28,0,0,0,1.59,2.8c26.38,5.79,31.42,47.67,15,65.17-2,2.13,1.21,5.35,3.21,3.21C236.37,353,231.17,308.37,203,300.25Z"/><path class="cls-7" d="M229.83,287a218.47,218.47,0,0,0,30.32,10.66c2.82.77,4-3.61,1.21-4.37A209.46,209.46,0,0,1,232.13,283c-2.66-1.15-5,2.76-2.3,3.92Z"/><path class="cls-7" d="M230.65,301a106.4,106.4,0,0,0,17.88,5.91c2.85.66,4.06-3.72,1.21-4.38a100.14,100.14,0,0,1-16.8-5.45c-2.66-1.13-5,2.78-2.29,3.92Z"/><path class="cls-7" d="M221.05,206.05c.43,18.74-2,37.57-1.66,56.32.06,2.92,4.6,2.93,4.54,0-.36-18.75-1.21-37.57-1.65-56.32C222.22,203.13,221.05,206.05,221.05,206.05Z"/><path class="cls-7" d="M243.74,205.84c.17,19.72-1.87,42.8-2.06,62.51,0,2.92,4.51-.17,4.53-3.09.2-19.72-1.06-39.5-1.23-59.21C245,203.13,243.74,205.84,243.74,205.84Z"/><path class="cls-7" d="M263.75,212.24c-.74,17.8-.91,40-1.65,57.76-.12,2.92,4.21-.18,4.33-3.09.74-17.81-1.77-36.87-1-54.67C265.52,209.32,263.75,212.24,263.75,212.24Z"/><path class="cls-7" d="M96.16,418.1c4.31,35.75,23.89,67.66,52.51,89.24,2.34,1.76,4.6-2.18,2.29-3.92-27.19-20.5-46.16-51.34-50.26-85.32-.34-2.87-4.89-2.9-4.54,0Z"/><path class="cls-7" d="M106.8,414.48c3.58,16.71,6.84,33.78,15.6,48.7,8.38,14.24,18.68,26.65,32.61,35.71,2.45,1.6,4.73-2.33,2.29-3.91-13.81-9-24-21.6-32-35.88-7.9-14-10.78-30.26-14.11-45.83-.61-2.85-5-1.65-4.38,1.21Z"/><path class="cls-8" d="M-22.73,514.87Q37.58,480.45,95.43,442c2.06-1.38.12-4.73-2-3.35Q35.66,477.08-24.68,511.52c-2.17,1.24-.22,4.58,1.95,3.35Z"/><circle class="cls-9" cx="449.1" cy="250" r="81.17" transform="translate(-45.24 390.78) rotate(-45)"/><path class="cls-9" d="M383.32,208.45a2.52,2.52,0,0,1,.13-.47l-.77.1c-1,.12-2.21.17-2.82-.63a14.31,14.31,0,0,1-3.34,4.92,4.89,4.89,0,0,1-4.18,1.12c-.41-.12-.82-.26-1.22-.39l-.12,0,.58.28c-1.33-.35-2.67-1-4-1.48a38.87,38.87,0,0,1-8.92-4.12,10.63,10.63,0,0,1-2.71-2.42,10.81,10.81,0,0,1-1.45-5s-4,2.7-4.31,3.05a10,10,0,0,0-2.77,4.16,1.44,1.44,0,0,0,1.26,1.08,5,5,0,0,0,1.76-.21,19.46,19.46,0,0,1,2-.35,3.34,3.34,0,0,1,1.18,0,3.82,3.82,0,0,1,1.17.56,45,45,0,0,1,5.8,4.19c1.13,1,2.57,1.68,3.79,2.61a17.12,17.12,0,0,1,6.06,7.47c1.09,3,1,6.22.81,9.37s-.29,6.41-.44,9.61q10-17.9,18.2-36.73C389.23,204.54,385.11,207.24,383.32,208.45Z"/><path class="cls-9" d="M398.91,165.27c-.53-1.13-1.07-2.23-1.59-3.29a10.26,10.26,0,0,0-2-3,3.78,3.78,0,0,0-3.35-1.06q3.81-2.26,7.4-4.86a10.4,10.4,0,0,0,.07,6.22c1.29,4.46,4.43,8.87,7.7,12.13a16,16,0,0,0,4.38,3.19c.32.15,5,1.78,4.94,1a8.5,8.5,0,0,1-4,7,20.52,20.52,0,0,1-7.84,2.79,16.23,16.23,0,0,0-4.77,1.36,11,11,0,0,0,2.71-6.32C403.1,175,401.12,170,398.91,165.27Z"/><path class="cls-9" d="M457.83,171.43a1.9,1.9,0,0,0-.26-.66,1.47,1.47,0,0,0-.68-.46,20.86,20.86,0,0,0-2.61-.69,10.85,10.85,0,0,1-5.42-3.37c-1.58-1.79-2-4-2.47-6.25A61.28,61.28,0,0,1,445,144a8.21,8.21,0,0,1,1.28-4.41c.33-.51,4.4-5.41,2.5-5.52-.47,0-1.86,1.84-2.29,2.16a6.33,6.33,0,0,1-3,1.43c-2.33.09-4.61-.18-7,.09a9.54,9.54,0,0,1,3.56,3.63,9.39,9.39,0,0,1,.57,3.21c.42,6.9,2.27,15.3-1,21.76a7,7,0,0,1-3.67,3.49c-1.4.5-3.15.54-4,1.78.23-.35,6.11,2,6.72,2.21,1.76.73,3.22,2.28,4.83,3.32A22.15,22.15,0,0,0,456.26,181c-.39,0-1.11-.87-1.74-1.74a5.87,5.87,0,0,0,3.7-4.41A9.65,9.65,0,0,0,457.83,171.43Z"/><path class="cls-9" d="M459.16,197.14a37.91,37.91,0,0,0,9.44-17.26,56.33,56.33,0,0,0,1.94-11.68c.15-3.47.26-6.62-2.07-9.5a1,1,0,0,1-.28-.54.86.86,0,0,1,.21-.5c1.36-2,3.26-4,5.68-4.15a5.73,5.73,0,0,1,4.65,2.15,9.17,9.17,0,0,1,1.92,4.89.88.88,0,0,1,0,.53,1.11,1.11,0,0,1-.54.43,9.81,9.81,0,0,0-4.31,5c-1.39,3.23-1.76,6.89-2.32,10.33-1.42,8.59-2.53,18,2.06,25.44Z"/><path class="cls-9" d="M516.47,152.64a13.05,13.05,0,0,0-2.1,1,14.88,14.88,0,0,1,1.12,4c.23,2.59-1.64,4.92-2.87,7.08a36.57,36.57,0,0,1-5.26,7.22,24.11,24.11,0,0,1-11.83,7.14,25.67,25.67,0,0,1-10.22-.05,16.41,16.41,0,0,0,3.86,7.66,21.11,21.11,0,0,0,5.5,7.5c3.9,3.49,8.76,5.7,13.52,7.86a19.11,19.11,0,0,1-2.26-12.94c.67-4.42,2.53-8.56,4.42-12.61,2.9-6.21,7.58-15.81,15.83-14.87.61-1.77-.15-3.71-1-5.37a8.9,8.9,0,0,0-2.13-2.9,6.1,6.1,0,0,0-4.34-1.22A8.91,8.91,0,0,0,516.47,152.64Z"/><path class="cls-9" d="M537.43,200.06a16,16,0,0,1,1-1.65c.46-.66,1.17-1.31,2-1.16a22.65,22.65,0,0,0,.88,8.19,11.82,11.82,0,0,1,.9,4.54c-4.33-1.44-8.47.36-12.26,2.42-2.37,1.29-5.17,2.42-5.58,5.43a12.85,12.85,0,0,0,.87,5.49,16.14,16.14,0,0,1-6.23-3.91c-4.38-4.45-5.8-11.28-4.59-17.4a13.75,13.75,0,0,0,4.92,3.53,14.94,14.94,0,0,0,8.79.69c1.28-.32,2.55-.69,3.8-1.09a9.5,9.5,0,0,0,2.94-1.36A10.9,10.9,0,0,0,537.43,200.06Z"/><path class="cls-9" d="M562.72,239.62l-.1,13.92c-6.35-4.34-14.7-4-22.35-3.2-7.41.75-10,4.09-14.69,9.09-2.44-3.18-1.53-11.26-1.46-15.31a105.55,105.55,0,0,1,1.4-15.37l3.52,8.31a10.2,10.2,0,0,0,2.27,3.72c1.45,1.32,3.5,1.68,5.43,2C545.46,244.15,554.78,244,562.72,239.62Z"/><path class="cls-9" d="M459.78,347.68a2.48,2.48,0,0,1-.48-.54,3.8,3.8,0,0,1-.44-1.7c-.47-4.48-2.06-9.31.36-13.54,1.67-2.92,5.06-4.3,8.2-5.48a28.72,28.72,0,0,0-13.55-1.4c-4.35.64-9.37,4.61-13.89,3.57,4.71,1.09,9.32,3.18,11.9,7.46a18.41,18.41,0,0,1,2.36,11.57,4.62,4.62,0,0,1-.68,2.19c-.2.27-.47.6-.32.91a1.18,1.18,0,0,0,.17.22c1.43,1.36,4.1,2.65,6.07,1.94a4.65,4.65,0,0,0,2.58-3.27.62.62,0,0,0,0-.27.57.57,0,0,0-.27-.28l-1.28-.84A7.77,7.77,0,0,1,459.78,347.68Z"/><path class="cls-9" d="M492.49,312.16a23,23,0,0,1,4.34-.86c.71-.05,2.88.52,3.45.13a14.66,14.66,0,0,0-3.55,3.77,24.78,24.78,0,0,0-3.81,7.06c-1,3.2-.29,5.75.45,8.86a56.11,56.11,0,0,0,3.39,9.87,45.43,45.43,0,0,0,2.19,5.06,4.73,4.73,0,0,0,.59.82c.89.93,2.28,1.1,3.53,1.42a.91.91,0,0,1,.42.2.81.81,0,0,1,.15.68,3.56,3.56,0,0,1-1.58,2.4A12.76,12.76,0,0,1,498,353a27.66,27.66,0,0,1-4.53-.42,9.61,9.61,0,0,0,1.17-3c.71-3.43-.58-6.85-2.07-10.2-2.81-6.28-7.9-15.95-16.39-13.15,2.61-5.83,8.18-9.7,13.49-13.26-.13-.05-.43.32-.36.21a.77.77,0,0,1,.34-.22C490.58,312.66,491.54,312.41,492.49,312.16Z"/><path class="cls-9" d="M528.66,314.12a5.4,5.4,0,0,1,.53,1,7.13,7.13,0,0,1,0,4.54c-.08.21-.11.54.12.57a.39.39,0,0,0,.15,0l3.6-1.11c1.52-.47,1.78-1.64,2.62-2.83.2-.28,1.92-4,1.47-4.06a11.55,11.55,0,0,1-3.22-.38c-1.94-.61-3.42-2.13-4.82-3.6l-3.4-3.58a32.81,32.81,0,0,1-5.16-6.43,12.5,12.5,0,0,1-1.58-4.78c-.15-1.44.19-2.69-.26-4.07a17.22,17.22,0,0,0-9,6.79c-1.65,2.4-4,6.68-3.23,9.68a3.42,3.42,0,0,1,1.56-.67,10.44,10.44,0,0,0,2.87-1.29,7.25,7.25,0,0,1,1.08-.63,5.73,5.73,0,0,1,2.37-.27c3.74.12,7.16,4,9.67,6.38l2.68,2.57A13.34,13.34,0,0,1,528.66,314.12Z"/><path class="cls-9" d="M530.42,273.83a10,10,0,0,0,9.17-.48,18.48,18.48,0,0,0-1.14,11.06c-.19-2.27-2.56-3.69-4.76-4.26a17.12,17.12,0,0,0-15,3.36c.58-3.09.89-6.26,2-9.24a5.78,5.78,0,0,1,2.48-3.22c1.63-1.12,2.88-2.72,4.56-3.83.13-.08.31-.17.44-.08s.12.24.11.38c0,.55-.07,1.09-.1,1.63a7.62,7.62,0,0,0,0,1.35A4.19,4.19,0,0,0,530.42,273.83Z"/><path class="cls-9" d="M406.58,329.6l-.27.83c-.72,2.24-1.58,4.41-2.11,6.7a22.23,22.23,0,0,1-1.95,5.29,2.52,2.52,0,0,1-.82.95c-.87.52-2.35.22-2.64,1.19.68,1.57,2.49,2.28,4.17,2.63s3.48.52,4.83,1.58a7.53,7.53,0,0,1-1.21-2.79,7.4,7.4,0,0,1,.41-3c.8-2.84,1.72-5.66,2.74-8.43a24.42,24.42,0,0,1,2.41-5.15,9.44,9.44,0,0,1,4.27-3.64c2.48-1,5.25-.47,7.86,0a11.71,11.71,0,0,0-6.65-8.83,14.13,14.13,0,0,1-2.52-1.18c-.56-.41-.87-1-1.42-1.34-3.12-2.16-8.23.3-10.92,2.24a7,7,0,0,1,3.66,3.63,10.65,10.65,0,0,1,1.05,5.46A19.53,19.53,0,0,1,406.58,329.6Z"/><path class="cls-9" d="M383.47,301.51c-1.61,1.32-3.05,2.84-5,3.61-.59.22-6.15,1.5-6.29.48.21,1.5-.15,3,.27,4.5a8.73,8.73,0,0,0,2,3.15c.76.9,1.7,1.87,2.88,1.83a10.51,10.51,0,0,0,1.63-.41,1.52,1.52,0,0,1,1.55.35c-.8-4.4,2-7.19,5.44-9.26a45.16,45.16,0,0,1,12.67-5.18c-3.19.77-4.92-7.26-7.36-7.31C389.17,293.23,385.21,300.09,383.47,301.51Z"/><path class="cls-9" d="M364.21,260.31a19.77,19.77,0,0,1-3.31,1.1c-4.62,1.21-16,5.16-19.12-.23,0,0-.3,3-.32,3.37-.08,2.23-.23,4.46.61,6.64a23.17,23.17,0,0,0,2.56,5.45c1.27-3.95,3.51-6.25,6.94-6.94l12.36-2.48a13.19,13.19,0,0,1,5.45-.32c4.67,1,8.13,6.46,11,11.45-.72-1.23,1-10.4,1.08-12.3.13-3.21.91-6.62-.69-9.47-.42-.76-6.85-7.94-5.73-8.73l-4.57,3.22a4.83,4.83,0,0,0-1.12,1,4.54,4.54,0,0,0-.64,1.5c-.57,2-1.16,4-2.62,5.46A6.89,6.89,0,0,1,364.21,260.31Z"/><ellipse class="cls-9" cx="393.3" cy="151.89" rx="7.04" ry="5.82" transform="translate(-25.43 201.12) rotate(-27.82)"/><ellipse class="cls-9" cx="348.37" cy="202.14" rx="7.04" ry="6.33" transform="translate(16 429.64) rotate(-64.51)"/><ellipse class="cls-9" cx="339.02" cy="269.11" rx="6.33" ry="10.98" transform="translate(-45.06 69.52) rotate(-10.98)"/><ellipse class="cls-9" cx="373.23" cy="313.19" rx="6.55" ry="8.78" transform="translate(-112.97 344.78) rotate(-43.72)"/><ellipse class="cls-9" cx="400.66" cy="350.48" rx="6.55" ry="7.84" transform="translate(-28.09 665.99) rotate(-77.53)"/><ellipse class="cls-9" cx="457.95" cy="354.54" rx="7.84" ry="6.55" transform="translate(-59.16 93.74) rotate(-10.98)"/><ellipse class="cls-9" cx="500.38" cy="355.87" rx="8.94" ry="7.48" transform="translate(-96.94 213.63) rotate(-22.03)"/><ellipse class="cls-9" cx="536.87" cy="320.12" rx="8.94" ry="7.48" transform="translate(-65.9 485.56) rotate(-46.15)"/><ellipse class="cls-9" cx="544.74" cy="279.24" rx="8.62" ry="7.21" transform="translate(164.5 758.96) rotate(-78.74)"/><ellipse class="cls-9" cx="566.82" cy="246.18" rx="8.73" ry="7.3" transform="translate(287.97 797.66) rotate(-86.65)"/><ellipse class="cls-9" cx="544.1" cy="202.45" rx="7.05" ry="8.43" transform="translate(-32.12 131.7) rotate(-13.41)"/><ellipse class="cls-9" cx="475.75" cy="155.15" rx="7.79" ry="8.43" transform="matrix(0.19, -0.98, 0.98, 0.19, 235.01, 593.84)"/><ellipse class="cls-9" cx="442.18" cy="132.05" rx="8.43" ry="7.79" transform="translate(-17.06 86.66) rotate(-10.98)"/><ellipse class="cls-9" cx="523.32" cy="153.09" rx="8.59" ry="9.42" transform="translate(91.6 486.14) rotate(-53.95)"/><path class="cls-8" d="M373.7,249.65a60.52,60.52,0,0,1,2.78-18.56c.21-.67-.82-1-1-.36a61.68,61.68,0,0,0-2.84,18.83c0,.7,1.09.79,1.09.09Z"/><path class="cls-8" d="M387,204.54a80,80,0,0,1,51-30.33c.69-.11.48-1.17-.21-1.07a81.14,81.14,0,0,0-51.71,30.79c-.43.56.48,1.16.9.61Z"/><path class="cls-8" d="M455,175.65c3.13.36,6.23.87,9.32,1.51.68.14.76-.95.08-1.09-3.08-.64-6.19-1.14-9.31-1.51-.7-.08-.78,1-.09,1.09Z"/><path class="cls-8" d="M373.55,262.71a84.76,84.76,0,0,0,8.2,26.21.54.54,0,0,0,1-.48,83.88,83.88,0,0,1-8.1-25.94c-.1-.69-1.17-.48-1.07.21Z"/><path class="cls-8" d="M388.06,297.81l3.65,4.22c.46.53,1.27-.19.82-.72l-3.65-4.21a.54.54,0,0,0-.82.71Z"/><path class="cls-8" d="M511.29,298.44a47.93,47.93,0,0,0,10.35-17.17.55.55,0,0,0-1-.36,46.65,46.65,0,0,1-10,16.71c-.47.51.24,1.33.72.82Z"/><path class="cls-8" d="M346.25,201.12a2.88,2.88,0,0,0,0,2.25.54.54,0,0,0,.93.06l1-1.57c.36-.6-.54-1.21-.9-.61l-.95,1.57.94.06a1.79,1.79,0,0,1,0-1.4c.27-.65-.76-1-1-.36Z"/><path class="cls-8" d="M336.29,263.68a4.73,4.73,0,0,0-.27,4,.55.55,0,0,0,.94.06c.45-.65.89-2-.27-2.27-.68-.13-1.56.54-1.1,1.25s1.36.1,1-.49c.09.15-.43.78-.51.9l.93.07a3.55,3.55,0,0,1,.2-2.87c.32-.62-.58-1.23-.9-.61Z"/><path class="cls-8" d="M388.78,151.62a1.65,1.65,0,0,0,1,1.92c.65.26,1-.76.36-1a.54.54,0,0,1-.31-.53.55.55,0,0,0-1-.36Z"/><path class="cls-8" d="M438.26,128.12a5,5,0,0,0-1,5.28.54.54,0,0,0,1-.2,6.28,6.28,0,0,1,1.26-4c.42-.56-.48-1.17-.9-.61a7.18,7.18,0,0,0-1.44,4.57l1-.2a3.81,3.81,0,0,1,.75-4c.47-.51-.24-1.34-.72-.82Z"/><path class="cls-8" d="M471.8,152.87a1.81,1.81,0,0,0-.63,2.75c.44.54,1.26-.17.82-.72a.72.72,0,0,1,.29-1.06c.64-.29.16-1.26-.48-1Z"/><path class="cls-8" d="M519.65,149.78a1.83,1.83,0,0,0,.43,3.08c.64.28,1-.75.36-1a.75.75,0,0,1-.07-1.24c.57-.41-.15-1.23-.72-.81Z"/><path class="cls-8" d="M369.06,310.69a3.65,3.65,0,0,0-1,3.29.55.55,0,0,0,1.07-.21c-.07-.4-.15-.81-.22-1.21a.55.55,0,0,0-1.07.21c.08.4.15.81.22,1.21l1.07-.21a2.49,2.49,0,0,1,.67-2.26c.48-.5-.23-1.32-.72-.82Z"/><path class="cls-8" d="M542.28,196.57a1.66,1.66,0,0,0-1.62,2,.54.54,0,0,0,.89.3l1.5-1.15c.55-.43-.17-1.25-.72-.82l-1.5,1.16.89.3a.57.57,0,0,1,.48-.68.56.56,0,0,0,.58-.5.55.55,0,0,0-.5-.59Z"/><path class="cls-8" d="M566.88,241.31a4.22,4.22,0,0,0-2,2.34.55.55,0,0,0,.75.67l.73-.33c.64-.29.16-1.26-.48-1l-.73.32.75.67a3.12,3.12,0,0,1,1.44-1.73c.61-.34.13-1.32-.49-1Z"/><path class="cls-8" d="M396.15,348.67l-.56,1.91c-.2.67.83,1,1,.36l.55-1.91c.2-.67-.83-1-1-.36Z"/><path class="cls-8" d="M496.28,354.89a1.11,1.11,0,0,0-1.13,0,1.23,1.23,0,0,0-.63.94,1.1,1.1,0,0,0,1.82.84.55.55,0,1,0-.72-.82l0,0s.05,0,0,0h0s0,0,0,0h0s.07,0,0,0,.08.07,0,0l.06.07c-.06-.08,0,0,0,0h0s0,0,0,0v.05l0,0c0,.06-.05,0,0,0s-.09,0,0,0,0,0,0,0l.1-.06c.07,0-.12,0,0,0h0c.1,0,0,0-.05,0a.55.55,0,0,0,.75-.15.54.54,0,0,0-.14-.75Z"/><path class="cls-8" d="M453.11,352l-.35.52a.54.54,0,1,0,.9.61l.35-.52a.54.54,0,0,0-.9-.61Z"/><path class="cls-8" d="M531.24,318.53a9.16,9.16,0,0,0,.23,3.72c.18.67,1.25.47,1.07-.21a8.44,8.44,0,0,1-.22-3.43c.1-.69-1-.77-1.08-.08Z"/><path class="cls-8" d="M543.82,273.22a3.2,3.2,0,0,0-2.22,3.55c.1.69,1.17.49,1.06-.21a2.13,2.13,0,0,1,1.37-2.28c.65-.21.45-1.28-.21-1.06Z"/><g class="cls-10"><ellipse class="cls-11" cx="438.06" cy="228.46" rx="58.68" ry="47.85" transform="translate(-52.68 171.28) rotate(-20.9)"/></g><circle class="cls-9" cx="294.67" cy="106.74" r="47.09" transform="translate(10.83 239.63) rotate(-45)"/><path class="cls-9" d="M256.52,82.64a2.29,2.29,0,0,1,.07-.28l-.45.06c-.58.07-1.28.1-1.63-.36a8.29,8.29,0,0,1-1.94,2.85,2.84,2.84,0,0,1-2.42.65l-.71-.23-.07,0,.34.16c-.77-.2-1.55-.57-2.34-.86a22.92,22.92,0,0,1-5.17-2.39,4.64,4.64,0,0,1-2.41-4.3s-2.3,1.57-2.5,1.77a5.7,5.7,0,0,0-1.61,2.41.83.83,0,0,0,.73.63,3,3,0,0,0,1-.12,11.27,11.27,0,0,1,1.16-.21,1.94,1.94,0,0,1,.68,0,2.12,2.12,0,0,1,.68.32,26.66,26.66,0,0,1,3.37,2.43c.65.58,1.48,1,2.19,1.51A10,10,0,0,1,249,91a14,14,0,0,1,.47,5.43c-.08,1.86-.17,3.72-.25,5.58Q255,91.64,259.8,80.71C260,80.37,257.56,81.94,256.52,82.64Z"/><path class="cls-9" d="M265.56,57.59c-.31-.66-.62-1.29-.92-1.91a6,6,0,0,0-1.18-1.75,2.16,2.16,0,0,0-1.94-.62q2.21-1.32,4.29-2.82a6.09,6.09,0,0,0,0,3.61,17.47,17.47,0,0,0,4.47,7A9.23,9.23,0,0,0,272.86,63c.19.09,2.88,1,2.86.58a4.88,4.88,0,0,1-2.32,4,11.88,11.88,0,0,1-4.54,1.62,9.38,9.38,0,0,0-2.77.79,6.41,6.41,0,0,0,1.57-3.67C268,63.26,266.84,60.33,265.56,57.59Z"/><path class="cls-9" d="M299.74,61.16a1.26,1.26,0,0,0-.15-.38.92.92,0,0,0-.4-.27,12.4,12.4,0,0,0-1.51-.4,6.36,6.36,0,0,1-3.15-2,7.66,7.66,0,0,1-1.43-3.62,35.72,35.72,0,0,1-.79-9.28,4.85,4.85,0,0,1,.74-2.56c.2-.29,2.56-3.13,1.46-3.19-.28,0-1.08,1.06-1.33,1.25a3.65,3.65,0,0,1-1.77.82c-1.35.06-2.68-.1-4.05.06a5.45,5.45,0,0,1,2.07,2.11,5.5,5.5,0,0,1,.33,1.85c.25,4,1.32,8.88-.56,12.63a4,4,0,0,1-2.13,2c-.81.29-1.83.32-2.3,1,.13-.2,3.54,1.14,3.9,1.29a19.87,19.87,0,0,1,2.8,1.92,12.78,12.78,0,0,0,7.35,2.24c-.22,0-.64-.5-1-1A3.37,3.37,0,0,0,300,63.16,5.7,5.7,0,0,0,299.74,61.16Z"/><path class="cls-9" d="M300.51,76.08a22,22,0,0,0,5.47-10,32.36,32.36,0,0,0,1.13-6.77c.09-2,.15-3.84-1.2-5.51a.54.54,0,0,1-.16-.32.56.56,0,0,1,.12-.29,4.77,4.77,0,0,1,3.29-2.4,3.33,3.33,0,0,1,2.7,1.25A5.37,5.37,0,0,1,313,54.85a.55.55,0,0,1,0,.31.6.6,0,0,1-.31.25,5.67,5.67,0,0,0-2.5,2.89,25.47,25.47,0,0,0-1.35,6c-.82,5-1.46,10.46,1.2,14.75Z"/><path class="cls-9" d="M333.75,50.27a7.16,7.16,0,0,0-1.22.58,9,9,0,0,1,.66,2.32c.13,1.5-1,2.86-1.67,4.11a21.64,21.64,0,0,1-3,4.18,13.86,13.86,0,0,1-6.86,4.14,14.8,14.8,0,0,1-5.93,0A9.6,9.6,0,0,0,317.91,70a12.29,12.29,0,0,0,3.2,4.35A29.8,29.8,0,0,0,329,78.93a11.09,11.09,0,0,1-1.31-7.5,27.47,27.47,0,0,1,2.56-7.32c1.68-3.6,4.4-9.17,9.18-8.62a4,4,0,0,0-.59-3.12,5.14,5.14,0,0,0-1.23-1.68A3.55,3.55,0,0,0,335,50,4.82,4.82,0,0,0,333.75,50.27Z"/><path class="cls-9" d="M345.91,77.77c.18-.33.36-.65.57-1s.68-.76,1.14-.67a13.13,13.13,0,0,0,.51,4.75,7,7,0,0,1,.52,2.64c-2.51-.84-4.91.2-7.12,1.4-1.37.75-3,1.4-3.23,3.15a7.29,7.29,0,0,0,.51,3.18A9.22,9.22,0,0,1,335.19,89a11.37,11.37,0,0,1-2.66-10.09,8,8,0,0,0,2.85,2,8.64,8.64,0,0,0,5.1.4c.74-.19,1.48-.4,2.21-.63a5.5,5.5,0,0,0,1.7-.79A6.31,6.31,0,0,0,345.91,77.77Z"/><path class="cls-9" d="M360.58,100.72l-.06,8.07c-3.68-2.51-8.52-2.3-13-1.85s-5.81,2.37-8.52,5.27c-1.42-1.85-.89-6.53-.85-8.88a60.61,60.61,0,0,1,.81-8.92l2.05,4.82a5.89,5.89,0,0,0,1.31,2.16,6,6,0,0,0,3.15,1.15C350.57,103.34,356,103.23,360.58,100.72Z"/><path class="cls-9" d="M300.87,163.4a1.38,1.38,0,0,1-.28-.31,2.39,2.39,0,0,1-.26-1c-.27-2.6-1.19-5.4.21-7.86,1-1.69,2.94-2.49,4.76-3.17a16.65,16.65,0,0,0-7.86-.82c-2.52.37-5.44,2.68-8.05,2.08,2.72.63,5.4,1.84,6.9,4.32a10.72,10.72,0,0,1,1.37,6.71,2.75,2.75,0,0,1-.4,1.27c-.11.16-.27.36-.18.53a.41.41,0,0,0,.1.13c.83.79,2.37,1.53,3.51,1.12a2.67,2.67,0,0,0,1.5-1.89.43.43,0,0,0,0-.16.35.35,0,0,0-.16-.16l-.74-.49A3.36,3.36,0,0,1,300.87,163.4Z"/><path class="cls-9" d="M319.84,142.79a14.41,14.41,0,0,1,2.52-.5c.41,0,1.67.31,2,.08a8.6,8.6,0,0,0-2.06,2.19,14.49,14.49,0,0,0-2.21,4.09c-.57,1.86-.16,3.34.26,5.15a33,33,0,0,0,2,5.72,26.33,26.33,0,0,0,1.27,2.94,3.12,3.12,0,0,0,.34.47,4.16,4.16,0,0,0,2.05.83.48.48,0,0,1,.24.11.45.45,0,0,1,.09.39,2.08,2.08,0,0,1-.91,1.4,7.47,7.47,0,0,1-2.36.84,15.63,15.63,0,0,1-2.62-.24,5.71,5.71,0,0,0,.68-1.74c.41-2-.34-4-1.21-5.91-1.62-3.64-4.58-9.26-9.5-7.63,1.51-3.38,4.74-5.63,7.82-7.69-.07,0-.25.19-.2.12a.36.36,0,0,1,.19-.13C318.74,143.09,319.29,142.94,319.84,142.79Z"/><path class="cls-9" d="M340.83,143.93a3.27,3.27,0,0,1,.3.59,4.08,4.08,0,0,1,0,2.63c0,.13-.06.31.07.33a.14.14,0,0,0,.09,0l2.09-.64c.88-.28,1-1,1.52-1.64.11-.17,1.11-2.35.85-2.36a6.52,6.52,0,0,1-1.87-.22,7,7,0,0,1-2.79-2.09l-2-2.07a19.19,19.19,0,0,1-3-3.74,7.15,7.15,0,0,1-.92-2.77,9.77,9.77,0,0,0-.15-2.36,10,10,0,0,0-5.21,3.94c-1,1.39-2.34,3.87-1.87,5.62a1.89,1.89,0,0,1,.9-.4,5.9,5.9,0,0,0,1.66-.74,5.76,5.76,0,0,1,.63-.37,3.17,3.17,0,0,1,1.37-.15c2.18.07,4.16,2.29,5.62,3.7l1.55,1.49A8,8,0,0,1,340.83,143.93Z"/><path class="cls-9" d="M341.85,120.56a5.72,5.72,0,0,0,5.31-.28,10.79,10.79,0,0,0-.66,6.42c-.11-1.32-1.48-2.14-2.76-2.48a9.91,9.91,0,0,0-8.72,2,35,35,0,0,1,1.13-5.36,3.3,3.3,0,0,1,1.44-1.87c.94-.65,1.67-1.58,2.64-2.22.08,0,.18-.1.26,0a.24.24,0,0,1,.06.22l-.06.95a5.08,5.08,0,0,0,0,.78A2.42,2.42,0,0,0,341.85,120.56Z"/><path class="cls-9" d="M270,152.91l-.15.49c-.42,1.29-.92,2.55-1.23,3.88a13.3,13.3,0,0,1-1.13,3.07,1.59,1.59,0,0,1-.48.55c-.5.3-1.36.13-1.53.69a3.16,3.16,0,0,0,2.42,1.52,6.67,6.67,0,0,1,2.8.92,4.25,4.25,0,0,1-.7-1.62,4.18,4.18,0,0,1,.24-1.74q.69-2.47,1.59-4.89a14.07,14.07,0,0,1,1.4-3,5.45,5.45,0,0,1,2.47-2.11,8.32,8.32,0,0,1,4.56,0,6.79,6.79,0,0,0-3.85-5.12,7.6,7.6,0,0,1-1.47-.69c-.32-.23-.5-.55-.82-.77-1.81-1.26-4.77.17-6.34,1.3a4.12,4.12,0,0,1,2.13,2.1,6.21,6.21,0,0,1,.6,3.17A10.66,10.66,0,0,1,270,152.91Z"/><path class="cls-9" d="M256.6,136.62a11.38,11.38,0,0,1-2.9,2.09c-.34.13-3.57.87-3.65.28a18.76,18.76,0,0,0,.16,2.61,5.11,5.11,0,0,0,1.15,1.83,2.34,2.34,0,0,0,1.67,1.06,5.89,5.89,0,0,0,.94-.24.86.86,0,0,1,.9.21c-.46-2.56,1.16-4.18,3.16-5.38a26.46,26.46,0,0,1,7.35-3c-1.85.44-2.85-4.21-4.27-4.24C259.91,131.81,257.61,135.79,256.6,136.62Z"/><path class="cls-9" d="M245.43,112.72a12.36,12.36,0,0,1-1.92.64c-2.68.7-9.3,3-11.09-.13,0,0-.17,1.75-.18,2a9.3,9.3,0,0,0,.35,3.85,13.53,13.53,0,0,0,1.49,3.16c.73-2.29,2-3.63,4-4l7.17-1.43a7.67,7.67,0,0,1,3.16-.19c2.71.59,4.72,3.75,6.41,6.64-.42-.71.58-6,.62-7.13.08-1.86.53-3.84-.4-5.5-.24-.43-4-4.6-3.32-5.06l-2.65,1.87a2.75,2.75,0,0,0-.65.57,2.81,2.81,0,0,0-.38.87,6.8,6.8,0,0,1-1.52,3.17A3.81,3.81,0,0,1,245.43,112.72Z"/><ellipse class="cls-9" cx="262.31" cy="49.83" rx="4.08" ry="3.37" transform="translate(7.06 128.18) rotate(-27.82)"/><ellipse class="cls-9" cx="236.25" cy="78.98" rx="4.08" ry="3.67" transform="translate(63.3 258.25) rotate(-64.51)"/><ellipse class="cls-9" cx="230.82" cy="117.83" rx="3.67" ry="6.37" transform="translate(-18.22 46.14) rotate(-10.98)"/><ellipse class="cls-9" cx="250.67" cy="143.39" rx="3.8" ry="5.1" transform="translate(-29.6 213) rotate(-43.72)"/><ellipse class="cls-9" cx="266.58" cy="165.02" rx="3.8" ry="4.55" transform="translate(47.87 389.67) rotate(-77.53)"/><ellipse class="cls-9" cx="299.81" cy="167.38" rx="4.55" ry="3.8" transform="translate(-26.4 60.19) rotate(-10.98)"/><ellipse class="cls-9" cx="324.42" cy="168.15" rx="5.19" ry="4.34" transform="translate(-39.38 133.94) rotate(-22.03)"/><ellipse class="cls-9" cx="345.59" cy="147.41" rx="5.19" ry="4.34" transform="translate(-0.12 294.53) rotate(-46.15)"/><ellipse class="cls-9" cx="350.15" cy="123.7" rx="5" ry="4.18" transform="translate(160.46 442.95) rotate(-78.74)"/><ellipse class="cls-9" cx="362.96" cy="104.52" rx="5.07" ry="4.24" transform="translate(237.43 460.76) rotate(-86.65)"/><ellipse class="cls-9" cx="349.78" cy="79.16" rx="4.09" ry="4.89" transform="translate(-8.82 83.27) rotate(-13.41)"/><ellipse class="cls-9" cx="310.14" cy="51.72" rx="4.52" ry="4.89" transform="translate(201.76 346.87) rotate(-79.3)"/><ellipse class="cls-9" cx="290.66" cy="38.32" rx="4.89" ry="4.52" transform="translate(-1.98 56.08) rotate(-10.98)"/><ellipse class="cls-9" cx="337.73" cy="50.53" rx="4.98" ry="5.47" transform="translate(98.14 293.86) rotate(-53.95)"/><path class="cls-8" d="M250.94,106.53a35,35,0,0,1,1.61-10.76c.12-.39-.48-.6-.6-.21a35.8,35.8,0,0,0-1.64,10.93c0,.4.63.45.63,0Z"/><path class="cls-8" d="M258.66,80.37a46.42,46.42,0,0,1,29.6-17.59.32.32,0,0,0-.12-.62,47.08,47.08,0,0,0-30,17.86c-.25.32.28.67.52.35Z"/><path class="cls-8" d="M298.09,63.61q2.71.31,5.4.87c.4.09.44-.54.05-.62-1.79-.37-3.59-.67-5.41-.88-.4,0-.45.58,0,.63Z"/><path class="cls-8" d="M250.85,114.11a49.33,49.33,0,0,0,4.75,15.21.32.32,0,0,0,.57-.28,48.57,48.57,0,0,1-4.7-15c-.06-.4-.68-.28-.62.12Z"/><path class="cls-8" d="M259.27,134.47l2.11,2.45c.27.31.74-.11.48-.42l-2.12-2.44c-.26-.31-.74.11-.47.41Z"/><path class="cls-8" d="M330.75,134.84a27.91,27.91,0,0,0,6-10,.32.32,0,0,0-.6-.21,27,27,0,0,1-5.82,9.69c-.27.3.14.78.42.48Z"/><path class="cls-8" d="M235,78.38a1.7,1.7,0,0,0,0,1.31.32.32,0,0,0,.54,0l.55-.91c.21-.35-.31-.71-.52-.36l-.55.91.55,0a1,1,0,0,1,0-.82c.16-.37-.44-.58-.59-.21Z"/><path class="cls-8" d="M229.23,114.67a2.8,2.8,0,0,0-.15,2.3.31.31,0,0,0,.54,0c.27-.38.52-1.19-.15-1.32-.39-.08-.9.31-.64.72s.79.06.57-.28c0,.09-.25.45-.3.52l.55,0a2,2,0,0,1,.11-1.66c.18-.36-.34-.72-.53-.36Z"/><path class="cls-8" d="M259.69,49.67a.94.94,0,0,0,.57,1.11c.37.16.58-.44.2-.59a.33.33,0,0,1-.18-.31.32.32,0,0,0-.19-.4.31.31,0,0,0-.4.19Z"/><path class="cls-8" d="M288.39,36a2.9,2.9,0,0,0-.59,3.06.32.32,0,0,0,.6-.11,3.61,3.61,0,0,1,.73-2.35c.24-.33-.28-.68-.52-.35a4.15,4.15,0,0,0-.84,2.65l.6-.12a2.21,2.21,0,0,1,.44-2.31c.27-.29-.14-.77-.42-.47Z"/><path class="cls-8" d="M307.84,50.4a1,1,0,0,0-.36,1.59c.25.32.73-.1.47-.42a.41.41,0,0,1,.17-.61c.37-.17.09-.73-.28-.56Z"/><path class="cls-8" d="M335.6,48.6a1.07,1.07,0,0,0,.24,1.79c.38.16.58-.43.21-.59a.43.43,0,0,1,0-.72c.32-.24-.09-.72-.42-.48Z"/><path class="cls-8" d="M248.24,141.94a2.11,2.11,0,0,0-.58,1.91.32.32,0,0,0,.62-.12l-.13-.7a.32.32,0,0,0-.62.12l.13.7.62-.12a1.44,1.44,0,0,1,.38-1.31c.28-.29-.13-.77-.42-.48Z"/><path class="cls-8" d="M348.73,75.75a1,1,0,0,0-1,1.14.32.32,0,0,0,.52.18l.87-.67c.32-.25-.1-.72-.42-.47l-.87.67.52.17a.33.33,0,0,1,.28-.39.34.34,0,0,0,.34-.29.32.32,0,0,0-.29-.34Z"/><path class="cls-8" d="M363,101.7a2.46,2.46,0,0,0-1.15,1.35.32.32,0,0,0,.44.39l.42-.19c.37-.16.09-.73-.28-.56l-.42.19.43.38a1.8,1.8,0,0,1,.84-1c.35-.2.07-.76-.28-.56Z"/><path class="cls-8" d="M264,164l-.33,1.1c-.11.39.49.6.6.21l.32-1.11c.12-.38-.48-.59-.59-.2Z"/><path class="cls-8" d="M322,167.58a.67.67,0,0,0-.66,0,.75.75,0,0,0-.36.55.64.64,0,0,0,1.06.48.31.31,0,0,0,0-.44.31.31,0,0,0-.44,0l0,0s0,0,0,0h0s0,0,0,0h0s0,0,0,0,0,0,0,0l0,0s0,0,0,0h0v0s0,0,0,0-.05,0,0,0,0,0,0,0l.05,0s-.07,0,0,0h0s0,0,0,0a.31.31,0,1,0,.35-.52Z"/><path class="cls-8" d="M297,165.92l-.21.3a.32.32,0,0,0,.53.35l.2-.3a.32.32,0,0,0-.08-.44.33.33,0,0,0-.44.09Z"/><path class="cls-8" d="M342.32,146.49a5.42,5.42,0,0,0,.13,2.16c.11.39.73.27.62-.12a4.78,4.78,0,0,1-.12-2c.05-.41-.58-.45-.63,0Z"/><path class="cls-8" d="M349.62,120.21a1.86,1.86,0,0,0-1.29,2.06c.06.4.68.28.62-.12a1.21,1.21,0,0,1,.79-1.32c.38-.13.26-.75-.12-.62Z"/><g class="cls-10"><ellipse class="cls-11" cx="288.27" cy="94.24" rx="34.04" ry="27.76" transform="translate(-14.65 109.02) rotate(-20.9)"/></g></g></g></g></svg>