<svg width="24" height="24" xmlns="http://www.w3.org/2000/svg" fill="none">

 <g>
  <title>Layer 1</title>
  <path id="svg_1" fill="#000000" d="m22,12c0,5.515 -4.486,10 -10,10s-10,-4.485 -10,-10c0,-5.514 4.486,-10 10,-10s10,4.486 10,10z" opacity="0.4"/>
  <path id="svg_2" fill-opacity="0.5" fill="#fff" d="m16.22,10.557a0.747,0.747 0 0 1 -0.218,0.53l-3.47,3.486a0.751,0.751 0 0 1 -1.063,0l-3.472,-3.487a0.749,0.749 0 1 1 1.063,-1.058l2.94,2.954l2.94,-2.954a0.75,0.75 0 0 1 1.28,0.53l0,-0.001z"/>
 </g>
</svg>