<?xml version="1.0" encoding="utf-8"?>
<svg height="24pt" viewBox="0 0 24 24" width="24pt" xmlns="http://www.w3.org/2000/svg" xmlns:bx="https://boxy-svg.com">
  <path d="M 12 0 C 5.383 0 0 5.383 0 12 C 0 18.617 5.383 24 12 24 C 18.617 24 24 18.617 24 12 C 24 5.383 18.617 0 12 0 Z M 17.25 13 L 13 13 L 13 17.25 C 13 17.802 12.552 18.25 12 18.25 C 11.448 18.25 11 17.802 11 17.25 L 11 13 L 6.75 13 C 6.198 13 5.75 12.552 5.75 12 C 5.75 11.448 6.198 11 6.75 11 L 11 11 L 11 6.75 C 11 6.198 11.448 5.75 12 5.75 C 12.552 5.75 13 6.198 13 6.75 L 13 11 L 17.25 11 C 17.802 11 18.25 11.448 18.25 12 C 18.25 12.552 17.802 13 17.25 13 Z M 17.25 13" style="fill-rule: evenodd; fill: rgb(255, 255, 255);" bx:origin="0 0"/>
</svg>