<?xml version="1.0" encoding="utf-8"?>
<svg width="24px" height="24px" fill="currentColor" class="bi bi-info-circle-fill" viewBox="0 0 24 24" xmlns="http://www.w3.org/2000/svg" xmlns:bx="https://boxy-svg.com">
  <path d="M 11.985 23.965 C 21.209 23.965 26.974 13.98 22.362 5.991 C 20.222 2.284 16.267 0 11.985 0 C 2.761 0 -3.003 9.985 1.609 17.974 C 3.749 21.681 7.704 23.965 11.985 23.965 Z M 13.379 9.867 L 11.881 16.914 C 11.776 17.424 11.924 17.712 12.336 17.712 C 12.626 17.712 13.065 17.608 13.363 17.345 L 13.231 17.968 C 12.801 18.485 11.853 18.864 11.037 18.864 C 9.984 18.864 9.536 18.231 9.827 16.888 L 10.932 11.694 C 11.028 11.254 10.942 11.096 10.503 10.989 L 9.827 10.868 L 9.949 10.298 L 13.38 9.867 Z M 11.985 8.238 C 10.833 8.238 10.111 6.989 10.688 5.991 C 10.956 5.527 11.45 5.242 11.985 5.242 C 13.138 5.242 13.859 6.491 13.283 7.489 C 13.015 7.953 12.521 8.238 11.985 8.238 Z" style="fill-rule: evenodd; fill: rgb(255, 255, 255);" bx:origin="0.000734 0"/>
</svg>