<?xml version="1.0" encoding="utf-8"?>
<svg width="24px" height="24px" fill="currentColor" class="bi bi-shield-fill-exclamation" viewBox="0 0 24 24" xmlns="http://www.w3.org/2000/svg" xmlns:bx="https://boxy-svg.com">
  <path fill-rule="evenodd" d="M 12 0 C 10.817 0 8.841 0.398 6.981 0.84 C 5.078 1.29 3.159 1.823 2.031 2.145 C 1.069 2.423 0.374 3.159 0.242 4.038 C -0.78 10.753 1.591 15.731 4.467 19.023 C 5.687 20.432 7.142 21.672 8.782 22.703 C 9.444 23.112 10.058 23.426 10.579 23.64 C 11.059 23.838 11.575 24 12 24 C 12.425 24 12.939 23.838 13.421 23.64 C 14.049 23.373 14.65 23.06 15.218 22.703 C 16.858 21.672 18.313 20.432 19.533 19.023 C 22.409 15.731 24.78 10.753 23.758 4.038 C 23.627 3.159 22.931 2.423 21.969 2.144 C 20.331 1.674 18.681 1.239 17.019 0.839 C 15.159 0.399 13.183 0 12 0 Z M 11.057 12.753 L 10.457 7.493 C 10.332 6.453 11.539 5.685 12.63 6.11 C 13.245 6.35 13.613 6.908 13.543 7.493 L 12.943 12.753 C 12.881 13.388 12.056 13.727 11.459 13.362 C 11.228 13.221 11.081 12.997 11.057 12.753 Z M 12.003 18 C 10.684 18 9.859 16.751 10.519 15.75 C 10.825 15.287 11.391 15 12.003 15 C 13.323 15 14.148 16.25 13.488 17.25 C 13.182 17.714 12.616 18 12.003 18 Z" style="fill-rule: nonzero; fill: rgb(255, 255, 255);" bx:origin="-0.000007 0"/>
</svg>