<?xml version="1.0" encoding="utf-8"?>
<svg version="1.1" id="Capa_1" x="0px" y="0px" viewBox="0 0 24 24" style="enable-background:new 0 0 478 478;" width="24px" height="24px" xmlns="http://www.w3.org/2000/svg" xmlns:bx="https://boxy-svg.com">
  <g transform="matrix(0.050209, 0, 0, 0.050214, 0, 0)" bx:origin="1.749634 -2.29395">
    <g>
      <path d="M119.5,187.75H17.1c-9.4,0-17,7.6-17.1,17.1v256c0,9.5,7.7,17.1,17.1,17.1h102.4c9.5,0,17.1-7.7,17.1-17.1v-256 C136.6,195.35,128.9,187.75,119.5,187.75z" style="fill-rule: evenodd; fill: rgb(255, 255, 255);"/>
    </g>
  </g>
  <g transform="matrix(0.050209, 0, 0, 0.050214, 0, 0)" bx:origin="0.5 -1.000218">
    <g>
      <path d="M290.2,0.05H187.8c-9.4,0-17.1,7.6-17.1,17v443.8c0,9.5,7.7,17.1,17.1,17.1h102.4c9.5,0,17.1-7.7,17.1-17.1V17.15 C307.3,7.65,299.6,0.05,290.2,0.05z" style="fill-rule: evenodd; fill: rgb(255, 255, 255);"/>
    </g>
  </g>
  <g transform="matrix(0.050209, 0, 0, 0.050214, 0, 0)" bx:origin="-0.749634 -1.799954">
    <g>
      <path d="M460.9,136.55H358.5c-9.5,0-17.1,7.6-17.1,17.1v307.2c0,9.5,7.7,17.1,17.1,17.1h102.4c9.5,0,17.1-7.7,17.1-17.1v-307.2 C478,144.15,470.3,136.55,460.9,136.55z" style="fill-rule: evenodd; fill: rgb(255, 255, 255);"/>
    </g>
  </g>
  <g transform="matrix(0.050209, 0, 0, 0.050214, 0, 0)" bx:origin="0 0"/>
  <g transform="matrix(0.050209, 0, 0, 0.050214, 0, 0)" bx:origin="0 0"/>
  <g transform="matrix(0.050209, 0, 0, 0.050214, 0, 0)" bx:origin="0 0"/>
  <g transform="matrix(0.050209, 0, 0, 0.050214, 0, 0)" bx:origin="0 0"/>
  <g transform="matrix(0.050209, 0, 0, 0.050214, 0, 0)" bx:origin="0 0"/>
  <g transform="matrix(0.050209, 0, 0, 0.050214, 0, 0)" bx:origin="0 0"/>
  <g transform="matrix(0.050209, 0, 0, 0.050214, 0, 0)" bx:origin="0 0"/>
  <g transform="matrix(0.050209, 0, 0, 0.050214, 0, 0)" bx:origin="0 0"/>
  <g transform="matrix(0.050209, 0, 0, 0.050214, 0, 0)" bx:origin="0 0"/>
  <g transform="matrix(0.050209, 0, 0, 0.050214, 0, 0)" bx:origin="0 0"/>
  <g transform="matrix(0.050209, 0, 0, 0.050214, 0, 0)" bx:origin="0 0"/>
  <g transform="matrix(0.050209, 0, 0, 0.050214, 0, 0)" bx:origin="0 0"/>
  <g transform="matrix(0.050209, 0, 0, 0.050214, 0, 0)" bx:origin="0 0"/>
  <g transform="matrix(0.050209, 0, 0, 0.050214, 0, 0)" bx:origin="0 0"/>
  <g transform="matrix(0.050209, 0, 0, 0.050214, 0, 0)" bx:origin="0 0"/>
</svg>