<?xml version="1.0" encoding="utf-8"?>
<svg id="Layer_1" enable-background="new 0 0 512 512" height="24px" viewBox="0 0 24 24" width="24px" xmlns="http://www.w3.org/2000/svg" xmlns:bx="https://boxy-svg.com">
  <path d="M 22.5 10.5 C 21.946 10.5 21.461 10.802 21.202 11.25 L 19.839 11.25 C 19.687 9.64 19.048 8.17 18.071 6.99 L 19.037 6.024 C 19.534 6.157 20.093 6.028 20.485 5.636 C 21.07 5.051 21.07 4.1 20.485 3.515 C 19.9 2.93 18.949 2.93 18.364 3.515 C 17.972 3.907 17.843 4.463 17.976 4.963 L 17.01 5.929 C 15.83 4.952 14.36 4.313 12.75 4.161 L 12.75 2.798 C 13.198 2.539 13.5 2.054 13.5 1.5 C 13.5 0.673 12.827 0 12 0 C 11.173 0 10.5 0.673 10.5 1.5 C 10.5 2.054 10.802 2.539 11.25 2.798 L 11.25 4.161 C 9.64 4.313 8.17 4.952 6.99 5.929 L 6.024 4.963 C 6.157 4.463 6.028 3.907 5.636 3.515 C 5.051 2.93 4.1 2.93 3.515 3.515 C 2.93 4.1 2.93 5.051 3.515 5.636 C 3.907 6.028 4.466 6.157 4.963 6.024 L 5.929 6.99 C 4.952 8.17 4.313 9.64 4.161 11.25 L 2.798 11.25 C 2.539 10.802 2.054 10.5 1.5 10.5 C 0.673 10.5 0 11.173 0 12 C 0 12.827 0.673 13.5 1.5 13.5 C 2.054 13.5 2.539 13.198 2.798 12.75 L 4.161 12.75 C 4.313 14.36 4.952 15.83 5.929 17.01 L 4.963 17.976 C 4.463 17.843 3.907 17.972 3.515 18.364 C 2.93 18.949 2.93 19.9 3.515 20.485 C 4.101 21.071 5.052 21.069 5.636 20.485 C 6.028 20.093 6.157 19.537 6.024 19.037 L 6.99 18.071 C 8.17 19.048 9.64 19.687 11.25 19.839 L 11.25 21.202 C 10.802 21.461 10.5 21.946 10.5 22.5 C 10.5 23.327 11.173 24 12 24 C 12.827 24 13.5 23.327 13.5 22.5 C 13.5 21.946 13.198 21.461 12.75 21.202 L 12.75 19.839 C 14.36 19.687 15.83 19.048 17.01 18.071 L 17.976 19.037 C 17.843 19.537 17.972 20.093 18.364 20.485 C 18.948 21.069 19.899 21.071 20.485 20.485 C 21.07 19.9 21.07 18.949 20.485 18.364 C 20.093 17.972 19.537 17.843 19.037 17.976 L 18.071 17.01 C 19.048 15.83 19.687 14.36 19.839 12.75 L 21.202 12.75 C 21.461 13.198 21.946 13.5 22.5 13.5 C 23.327 13.5 24 12.827 24 12 C 24 11.173 23.327 10.5 22.5 10.5 Z M 9.516 11.625 C 8.792 11.625 8.203 11.036 8.203 10.312 C 8.203 9.589 8.792 9 9.516 9 C 10.239 9 10.828 9.589 10.828 10.312 C 10.828 11.036 10.239 11.625 9.516 11.625 Z M 12.75 16.125 C 11.923 16.125 11.25 15.452 11.25 14.625 C 11.25 13.798 11.923 13.125 12.75 13.125 C 13.577 13.125 14.25 13.798 14.25 14.625 C 14.25 15.452 13.577 16.125 12.75 16.125 Z M 15.375 10.875 C 14.755 10.875 14.25 10.37 14.25 9.75 C 14.25 9.13 14.755 8.625 15.375 8.625 C 15.995 8.625 16.5 9.13 16.5 9.75 C 16.5 10.37 15.995 10.875 15.375 10.875 Z" style="fill-rule: evenodd; fill: rgb(255, 255, 255);" bx:origin="0 0"/>
</svg>